<svg  height="78" viewBox="0 0 380 78" fill="none" xmlns="http://www.w3.org/2000/svg">
<path d="M51.8145 62.384C47.3772 62.384 43.3665 61.4027 39.7825 59.44C36.2412 57.4773 33.4465 54.768 31.3985 51.312C29.3932 47.8133 28.3905 43.9093 28.3905 39.6C28.3905 35.2907 29.3932 31.408 31.3985 27.952C33.4465 24.4533 36.2625 21.7227 39.8465 19.76C43.4305 17.7973 47.4412 16.816 51.8785 16.816C55.2065 16.816 58.2785 17.3707 61.0945 18.48C63.9105 19.5893 66.2998 21.2107 68.2625 23.344L65.2545 26.352C61.7558 22.8107 57.3398 21.04 52.0065 21.04C48.4652 21.04 45.2438 21.8507 42.3425 23.472C39.4412 25.0933 37.1585 27.312 35.4945 30.128C33.8732 32.944 33.0625 36.1013 33.0625 39.6C33.0625 43.0987 33.8732 46.256 35.4945 49.072C37.1585 51.888 39.4412 54.1067 42.3425 55.728C45.2438 57.3493 48.4652 58.16 52.0065 58.16C57.3825 58.16 61.7985 56.368 65.2545 52.784L68.2625 55.792C66.2998 57.9253 63.8892 59.568 61.0305 60.72C58.2145 61.8293 55.1425 62.384 51.8145 62.384ZM89.6585 62.32C86.4158 62.32 83.4932 61.5947 80.8905 60.144C78.2878 58.6507 76.2398 56.6027 74.7465 54C73.2532 51.3973 72.5065 48.4533 72.5065 45.168C72.5065 41.8827 73.2532 38.9387 74.7465 36.336C76.2398 33.7333 78.2878 31.7067 80.8905 30.256C83.4932 28.8053 86.4158 28.08 89.6585 28.08C92.9012 28.08 95.8238 28.8053 98.4265 30.256C101.029 31.7067 103.056 33.7333 104.507 36.336C106 38.9387 106.747 41.8827 106.747 45.168C106.747 48.4533 106 51.3973 104.507 54C103.056 56.6027 101.029 58.6507 98.4265 60.144C95.8238 61.5947 92.9012 62.32 89.6585 62.32ZM89.6585 58.288C92.0478 58.288 94.1812 57.7547 96.0585 56.688C97.9785 55.5787 99.4718 54.0213 100.539 52.016C101.605 50.0107 102.139 47.728 102.139 45.168C102.139 42.608 101.605 40.3253 100.539 38.32C99.4718 36.3147 97.9785 34.7787 96.0585 33.712C94.1812 32.6027 92.0478 32.048 89.6585 32.048C87.2692 32.048 85.1145 32.6027 83.1945 33.712C81.3172 34.7787 79.8238 36.3147 78.7145 38.32C77.6478 40.3253 77.1145 42.608 77.1145 45.168C77.1145 47.728 77.6478 50.0107 78.7145 52.016C79.8238 54.0213 81.3172 55.5787 83.1945 56.688C85.1145 57.7547 87.2692 58.288 89.6585 58.288ZM146.744 14.512V62H142.392V55.344C141.026 57.6053 139.213 59.3333 136.952 60.528C134.733 61.7227 132.216 62.32 129.4 62.32C126.242 62.32 123.384 61.5947 120.824 60.144C118.264 58.6933 116.258 56.6667 114.808 54.064C113.357 51.4613 112.632 48.496 112.632 45.168C112.632 41.84 113.357 38.8747 114.808 36.272C116.258 33.6693 118.264 31.664 120.824 30.256C123.384 28.8053 126.242 28.08 129.4 28.08C132.13 28.08 134.584 28.656 136.76 29.808C138.978 30.9173 140.792 32.56 142.2 34.736V14.512H146.744ZM129.784 58.288C132.13 58.288 134.242 57.7547 136.12 56.688C138.04 55.5787 139.533 54.0213 140.6 52.016C141.709 50.0107 142.264 47.728 142.264 45.168C142.264 42.608 141.709 40.3253 140.6 38.32C139.533 36.3147 138.04 34.7787 136.12 33.712C134.242 32.6027 132.13 32.048 129.784 32.048C127.394 32.048 125.24 32.6027 123.32 33.712C121.442 34.7787 119.949 36.3147 118.84 38.32C117.773 40.3253 117.24 42.608 117.24 45.168C117.24 47.728 117.773 50.0107 118.84 52.016C119.949 54.0213 121.442 55.5787 123.32 56.688C125.24 57.7547 127.394 58.288 129.784 58.288ZM173.799 58.288C175.889 58.288 177.809 57.9253 179.559 57.2C181.351 56.432 182.865 55.3227 184.103 53.872L186.663 56.816C185.169 58.608 183.313 59.9733 181.095 60.912C178.876 61.8507 176.423 62.32 173.735 62.32C170.279 62.32 167.207 61.5947 164.519 60.144C161.831 58.6507 159.74 56.6027 158.247 54C156.753 51.3973 156.007 48.4533 156.007 45.168C156.007 41.8827 156.711 38.9387 158.119 36.336C159.569 33.7333 161.553 31.7067 164.071 30.256C166.588 28.8053 169.447 28.08 172.647 28.08C175.633 28.08 178.321 28.7627 180.711 30.128C183.143 31.4933 185.063 33.392 186.471 35.824C187.921 38.256 188.689 41.0293 188.775 44.144L161.127 49.52C161.98 52.2507 163.516 54.4053 165.735 55.984C167.996 57.52 170.684 58.288 173.799 58.288ZM172.647 31.984C170.3 31.984 168.188 32.5387 166.311 33.648C164.476 34.7147 163.025 36.2293 161.959 38.192C160.935 40.112 160.423 42.3307 160.423 44.848C160.423 45.488 160.444 45.9573 160.487 46.256L184.231 41.648C183.719 38.832 182.417 36.528 180.327 34.736C178.236 32.9013 175.676 31.984 172.647 31.984ZM236.424 17.2V62H231.752V41.328H203.72V62H198.984V17.2H203.72V37.168H231.752V17.2H236.424ZM280.422 28.336V62H276.07V55.856C274.875 57.904 273.233 59.504 271.142 60.656C269.051 61.7653 266.662 62.32 263.974 62.32C259.579 62.32 256.102 61.104 253.542 58.672C251.025 56.1973 249.766 52.592 249.766 47.856V28.336H254.31V47.408C254.31 50.9493 255.185 53.6373 256.934 55.472C258.683 57.3067 261.179 58.224 264.422 58.224C267.963 58.224 270.758 57.1573 272.806 55.024C274.854 52.848 275.878 49.84 275.878 46V28.336H280.422ZM310.301 28.08C314.525 28.08 317.874 29.3173 320.349 31.792C322.866 34.224 324.125 37.7867 324.125 42.48V62H319.581V42.928C319.581 39.4293 318.706 36.7627 316.957 34.928C315.207 33.0933 312.711 32.176 309.469 32.176C305.842 32.176 302.962 33.264 300.829 35.44C298.738 37.5733 297.693 40.5387 297.693 44.336V62H293.149V28.336H297.501V34.544C298.738 32.496 300.445 30.9173 302.621 29.808C304.839 28.656 307.399 28.08 310.301 28.08ZM353.037 59.952C352.184 60.72 351.138 61.3173 349.901 61.744C348.664 62.128 347.362 62.32 345.997 62.32C342.84 62.32 340.408 61.4667 338.701 59.76C336.994 58.0533 336.141 55.6427 336.141 52.528V20.976H340.685V28.336H350.861V32.176H340.685V52.272C340.685 54.2773 341.176 55.8133 342.157 56.88C343.138 57.904 344.568 58.416 346.445 58.416C348.493 58.416 350.157 57.84 351.437 56.688L353.037 59.952Z" fill="#575757"/>
<path d="M28.1071 73.956H352.245C363.291 73.956 372.245 65.0017 372.245 53.956V48.978V24" stroke="#FF9254" stroke-width="8" stroke-linecap="round"/>
</svg>
