<svg stroke='#ff9254' width="30" height="30" viewBox="0 0 20 20" fill="none" xmlns="http://www.w3.org/2000/svg">
<path d="M9.19169 7.10832C9.25309 7.0511 9.30234 6.9821 9.3365 6.90543C9.37066 6.82877 9.38903 6.74601 9.39051 6.66209C9.39199 6.57817 9.37656 6.49481 9.34512 6.41699C9.31369 6.33916 9.2669 6.26847 9.20755 6.20912C9.1482 6.14977 9.07751 6.10298 8.99968 6.07155C8.92186 6.04012 8.8385 6.02468 8.75458 6.02616C8.67067 6.02764 8.5879 6.04601 8.51124 6.08017C8.43457 6.11433 8.36557 6.16358 8.30835 6.22499L4.97502 9.55832C4.85798 9.67551 4.79224 9.83436 4.79224 9.99999C4.79224 10.1656 4.85798 10.3245 4.97502 10.4417L8.30835 13.775C8.36557 13.8364 8.43457 13.8856 8.51124 13.9198C8.5879 13.954 8.67067 13.9723 8.75458 13.9738C8.8385 13.9753 8.92186 13.9599 8.99968 13.9284C9.07751 13.897 9.1482 13.8502 9.20755 13.7909C9.2669 13.7315 9.31369 13.6608 9.34512 13.583C9.37656 13.5052 9.39199 13.4218 9.39051 13.3379C9.38903 13.254 9.37066 13.1712 9.3365 13.0945C9.30234 13.0179 9.25309 12.9489 9.19169 12.8917L6.92502 10.625H15C15.1658 10.625 15.3248 10.5591 15.442 10.4419C15.5592 10.3247 15.625 10.1657 15.625 9.99999C15.625 9.83423 15.5592 9.67525 15.442 9.55804C15.3248 9.44083 15.1658 9.37499 15 9.37499H6.92502L9.19169 7.10832Z" fill="#545454"/>
</svg>
