<svg width="20" height="20" viewBox="0 0 20 20" fill="none" xmlns="http://www.w3.org/2000/svg">
<path d="M4.84376 6.49575V13.5043C4.12723 13.6586 3.49312 14.0725 3.06349 14.6663C2.63387 15.2601 2.4391 15.9919 2.51669 16.7207C2.59428 17.4496 2.93874 18.1239 3.48375 18.614C4.02877 19.1041 4.73581 19.3752 5.46876 19.3752C6.20171 19.3752 6.90875 19.1041 7.45376 18.614C7.99878 18.1239 8.34324 17.4496 8.42083 16.7207C8.49842 15.9919 8.30365 15.2601 7.87402 14.6663C7.44439 14.0725 6.81028 13.6586 6.09376 13.5043V11.0156H12.0313C12.8598 11.0147 13.6541 10.6852 14.2399 10.0993C14.8258 9.51347 15.1553 8.71915 15.1563 7.89063V6.45747C15.8631 6.26445 16.4735 5.81682 16.8701 5.20074C17.2667 4.58465 17.4214 3.84365 17.3044 3.12035C17.1874 2.39706 16.807 1.74259 16.2365 1.28292C15.6659 0.823249 14.9455 0.59086 14.2139 0.630482C13.4822 0.670104 12.7911 0.978936 12.2735 1.49754C11.756 2.01614 11.4485 2.70786 11.4103 3.43955C11.3721 4.17125 11.6059 4.89121 12.0667 5.46087C12.5275 6.03052 13.1827 6.40961 13.9063 6.52517V7.89063C13.9057 8.38774 13.708 8.86432 13.3565 9.21583C13.0049 9.56734 12.5284 9.76507 12.0313 9.76563H6.09376V6.49575C6.81028 6.34145 7.44439 5.92754 7.87402 5.3337C8.30365 4.73987 8.49842 4.0081 8.42083 3.27927C8.34324 2.55044 7.99878 1.87607 7.45376 1.386C6.90875 0.895923 6.20171 0.624786 5.46876 0.624786C4.73581 0.624786 4.02877 0.895923 3.48375 1.386C2.93874 1.87607 2.59428 2.55044 2.51669 3.27927C2.4391 4.0081 2.63387 4.73987 3.06349 5.3337C3.49312 5.92754 4.12723 6.34145 4.84376 6.49575ZM12.6563 3.59376C12.6563 3.25382 12.7571 2.92152 12.9459 2.63887C13.1348 2.35623 13.4032 2.13593 13.7173 2.00584C14.0313 1.87575 14.3769 1.84172 14.7103 1.90803C15.0437 1.97435 15.35 2.13805 15.5903 2.37842C15.8307 2.61879 15.9944 2.92504 16.0607 3.25845C16.127 3.59185 16.093 3.93744 15.9629 4.2515C15.8328 4.56556 15.6125 4.83399 15.3299 5.02285C15.0472 5.21171 14.7149 5.31251 14.375 5.31251C13.9193 5.31199 13.4825 5.13074 13.1602 4.80853C12.838 4.48631 12.6568 4.04944 12.6563 3.59376ZM7.18751 16.4063C7.18751 16.7462 7.0867 17.0785 6.89784 17.3611C6.70899 17.6438 6.44055 17.8641 6.12649 17.9942C5.81243 18.1243 5.46685 18.1583 5.13345 18.092C4.80004 18.0257 4.49379 17.862 4.25342 17.6216C4.01305 17.3812 3.84935 17.075 3.78303 16.7416C3.71671 16.4082 3.75075 16.0626 3.88084 15.7485C4.01093 15.4345 4.23122 15.166 4.51387 14.9772C4.79652 14.7883 5.12882 14.6875 5.46876 14.6875C5.92444 14.688 6.36131 14.8693 6.68353 15.1915C7.00574 15.5137 7.18699 15.9506 7.18751 16.4063ZM5.46876 1.87501C5.80869 1.87501 6.141 1.97581 6.42364 2.16467C6.70629 2.35353 6.92659 2.62196 7.05667 2.93602C7.18676 3.25008 7.2208 3.59567 7.15448 3.92907C7.08816 4.26248 6.92447 4.56873 6.6841 4.8091C6.44373 5.04947 6.13747 5.21317 5.80407 5.27948C5.47066 5.3458 5.12508 5.31176 4.81102 5.18168C4.49696 5.05159 4.22853 4.83129 4.03967 4.54865C3.85081 4.266 3.75001 3.9337 3.75001 3.59376C3.75052 3.13808 3.93177 2.70121 4.25399 2.37899C4.5762 2.05677 5.01307 1.87553 5.46876 1.87501Z" fill="#545454"/>
</svg>
