<svg width="20" height="20" viewBox="0 0 20 20" fill="none" xmlns="http://www.w3.org/2000/svg">
<path fill-rule="evenodd" clip-rule="evenodd" d="M3.125 15.3125C3.125 15.8098 3.32254 16.2867 3.67417 16.6383C4.02581 16.99 4.50272 17.1875 5 17.1875H15C15.4973 17.1875 15.9742 16.99 16.3258 16.6383C16.6775 16.2867 16.875 15.8098 16.875 15.3125V5.3125C16.875 4.81522 16.6775 4.33831 16.3258 3.98667C15.9742 3.63504 15.4973 3.4375 15 3.4375H5C4.50272 3.4375 4.02581 3.63504 3.67417 3.98667C3.32254 4.33831 3.125 4.81522 3.125 5.3125V15.3125ZM5 19.0625C4.00544 19.0625 3.05161 18.6674 2.34835 17.9642C1.64509 17.2609 1.25 16.3071 1.25 15.3125V5.3125C1.25 4.31794 1.64509 3.36411 2.34835 2.66085C3.05161 1.95759 4.00544 1.5625 5 1.5625H15C15.9946 1.5625 16.9484 1.95759 17.6517 2.66085C18.3549 3.36411 18.75 4.31794 18.75 5.3125V15.3125C18.75 16.3071 18.3549 17.2609 17.6517 17.9642C16.9484 18.6674 15.9946 19.0625 15 19.0625H5ZM11.25 13.75C11.25 14.0815 11.1183 14.3995 10.8839 14.6339C10.6495 14.8683 10.3315 15 10 15C9.66848 15 9.35054 14.8683 9.11612 14.6339C8.8817 14.3995 8.75 14.0815 8.75 13.75C8.75 13.4185 8.8817 13.1005 9.11612 12.8661C9.35054 12.6317 9.66848 12.5 10 12.5C10.3315 12.5 10.6495 12.6317 10.8839 12.8661C11.1183 13.1005 11.25 13.4185 11.25 13.75ZM10.9375 6.5625C10.9375 6.31386 10.8387 6.0754 10.6629 5.89959C10.4871 5.72377 10.2486 5.625 10 5.625C9.75136 5.625 9.5129 5.72377 9.33709 5.89959C9.16127 6.0754 9.0625 6.31386 9.0625 6.5625V10.3125C9.0625 10.5611 9.16127 10.7996 9.33709 10.9754C9.5129 11.1512 9.75136 11.25 10 11.25C10.2486 11.25 10.4871 11.1512 10.6629 10.9754C10.8387 10.7996 10.9375 10.5611 10.9375 10.3125V6.5625Z" fill="#545454"/>
</svg>
