<svg width="30" height="40" viewBox="0 0 30 40" fill="none" xmlns="http://www.w3.org/2000/svg">
<path d="M24.5 35L16.625 24.5C16 25.1667 15.2813 25.6944 14.4688 26.0833C13.6563 26.4722 12.7917 26.6667 11.875 26.6667C9.60417 26.6667 7.6825 25.6178 6.11 23.52C4.5375 21.4222 3.75083 18.86 3.75 15.8333C3.74917 12.8067 4.53583 10.2444 6.11 8.14667C7.68417 6.04889 9.60583 5 11.875 5C14.1442 5 16.0663 6.04889 17.6413 8.14667C19.2163 10.2444 20.0025 12.8067 20 15.8333C20 17.0556 19.8542 18.2083 19.5625 19.2917C19.2708 20.375 18.875 21.3333 18.375 22.1667L26.25 32.6667L24.5 35ZM11.875 23.3333C13.4375 23.3333 14.7658 22.6044 15.86 21.1467C16.9542 19.6889 17.5008 17.9178 17.5 15.8333C17.4992 13.7489 16.9525 11.9783 15.86 10.5217C14.7675 9.065 13.4392 8.33556 11.875 8.33333C10.3108 8.33111 8.98292 9.06056 7.89125 10.5217C6.79958 11.9828 6.2525 13.7533 6.25 15.8333C6.2475 17.9133 6.79458 19.6844 7.89125 21.1467C8.98792 22.6089 10.3158 23.3378 11.875 23.3333Z" fill="#FF9254"/>
</svg>
