<svg width="20" height="20" viewBox="0 0 20 20" fill="none" xmlns="http://www.w3.org/2000/svg">
<path d="M18.6859 7.59845C18.6078 7.35824 18.4603 7.14652 18.2621 6.98998C18.0638 6.83343 17.8237 6.73907 17.5719 6.71876L12.9625 6.34689L11.1828 2.04298C11.0866 1.80846 10.9227 1.60786 10.7122 1.46668C10.5017 1.3255 10.2539 1.25012 10.0004 1.25012C9.74688 1.25012 9.49911 1.3255 9.28856 1.46668C9.07802 1.60786 8.91421 1.80846 8.81796 2.04298L7.03983 6.34611L2.42812 6.71876C2.17591 6.74009 1.93561 6.83538 1.73732 6.99267C1.53902 7.14997 1.39156 7.36229 1.3134 7.60303C1.23524 7.84376 1.22986 8.10221 1.29793 8.34599C1.36601 8.58977 1.50451 8.80804 1.69609 8.97345L5.21171 12.007L4.14062 16.543C4.08071 16.7894 4.09538 17.0481 4.18276 17.2862C4.27013 17.5242 4.42628 17.731 4.63137 17.8801C4.83646 18.0293 5.08125 18.1142 5.33466 18.124C5.58807 18.1338 5.83868 18.0681 6.05468 17.9352L9.99999 15.507L13.9476 17.9352C14.1637 18.0665 14.4138 18.1309 14.6664 18.1204C14.9191 18.1099 15.1629 18.0248 15.3673 17.876C15.5717 17.7271 15.7275 17.5211 15.8151 17.2839C15.9026 17.0467 15.918 16.7889 15.8594 16.543L14.7844 12.0063L18.3 8.97267C18.4931 8.80753 18.6329 8.58879 18.7016 8.34415C18.7703 8.09951 18.7648 7.83999 18.6859 7.59845ZM17.4875 8.02579L13.6828 11.307C13.596 11.3818 13.5315 11.479 13.4962 11.588C13.461 11.697 13.4563 11.8136 13.4828 11.925L14.6453 16.8313C14.6483 16.838 14.6486 16.8457 14.6461 16.8527C14.6437 16.8596 14.6386 16.8654 14.632 16.8688C14.618 16.8797 14.6141 16.8774 14.6023 16.8688L10.3273 14.2399C10.2289 14.1793 10.1156 14.1473 9.99999 14.1473C9.88442 14.1473 9.7711 14.1793 9.67265 14.2399L5.39765 16.8703C5.38593 16.8774 5.3828 16.8797 5.36796 16.8703C5.36137 16.867 5.35631 16.8612 5.35384 16.8542C5.35137 16.8472 5.35167 16.8396 5.35468 16.8328L6.51718 11.9266C6.54367 11.8151 6.53903 11.6986 6.50376 11.5896C6.46849 11.4806 6.40394 11.3834 6.31718 11.3086L2.51249 8.02736C2.50312 8.01954 2.49452 8.01251 2.50234 7.98829C2.51015 7.96408 2.5164 7.9672 2.52812 7.96564L7.52187 7.56251C7.6364 7.55269 7.74602 7.51146 7.83864 7.44337C7.93126 7.37528 8.00331 7.28297 8.04687 7.17658L9.9703 2.51954C9.97655 2.50626 9.9789 2.50001 9.99765 2.50001C10.0164 2.50001 10.0187 2.50626 10.025 2.51954L11.9531 7.17658C11.9971 7.28301 12.0696 7.37522 12.1626 7.44305C12.2557 7.51088 12.3657 7.55168 12.4805 7.56095L17.4742 7.96408C17.4859 7.96408 17.493 7.96408 17.5 7.98673C17.507 8.00939 17.5 8.01798 17.4875 8.02579Z" fill="#545454"/>
</svg>
