<svg width="20" height="20" viewBox="0 0 20 20" fill="none" xmlns="http://www.w3.org/2000/svg">
<path d="M9.9867 4.375C6.94216 4.375 3.81912 6.13711 1.36052 9.66133C1.29035 9.76303 1.25189 9.88325 1.25001 10.0068C1.24813 10.1303 1.28292 10.2517 1.34998 10.3555C3.23904 13.3125 6.32029 15.625 9.9867 15.625C13.6133 15.625 16.7578 13.3055 18.6504 10.3418C18.7159 10.24 18.7507 10.1216 18.7507 10.0006C18.7507 9.87958 18.7159 9.76113 18.6504 9.65937C16.7535 6.72969 13.5859 4.375 9.9867 4.375Z" stroke="#545454" stroke-width="1.25" stroke-linecap="round" stroke-linejoin="round"/>
<path d="M10 13.125C11.7259 13.125 13.125 11.7259 13.125 10C13.125 8.27411 11.7259 6.875 10 6.875C8.27411 6.875 6.875 8.27411 6.875 10C6.875 11.7259 8.27411 13.125 10 13.125Z" stroke="#545454" stroke-width="1.25" stroke-miterlimit="10"/>
</svg>
